<svg xmlns="http://www.w3.org/2000/svg" viewBox="0 0 128 128" role="img" aria-label="Risk map icon">
  <rect width="128" height="128" fill="#ffffff"/>
  <g stroke="#111827" stroke-width="3" stroke-linejoin="round" stroke-linecap="round">
    <path d="M8 30 36 20 64 30 92 20 120 30v66l-28 10-28-10-28 10L8 96Z" fill="#dbeafe"/>
    <path d="M36 20v86M64 30v76M92 20v86" fill="none"/>
  </g>
  <g fill="#84cc16" stroke="#111827" stroke-width="2.5" stroke-linejoin="round">
    <path d="M16 72c5-8 10-9 16-8 2 0 3-2 3-4V50c0-2 2-3 4-3 5 1 8 3 11 6 2 2 5 2 7 0l3-3c2-2 5-2 8 0 4 3 6 7 7 11 1 2 3 4 5 4 4 0 9 1 15 7v25H16Z"/>
    <path d="M20 30c5 0 8 2 10 5 2 2 5 2 7 0l5-4c2-2 5-2 8 0l4 3c2 2 5 2 7 0l4-3c2-2 5-2 8 0l7 5c2 2 5 2 7 0l7-5c2-2 5-2 8 0v13H20Z"/>
  </g>
  <g transform="translate(64 12)">
    <path d="M0 0c-11 0-20 9-20 20 0 15 20 34 20 34s20-19 20-34C20 9 11 0 0 0Z" fill="#f97316" stroke="#111827" stroke-width="3"/>
    <circle cx="0" cy="20" r="7" fill="#ffffff" stroke="#111827" stroke-width="3"/>
  </g>
</svg>
